<svg xmlns="http://www.w3.org/2000/svg" viewBox="0 0 48 48" width="48px" height="48px">
  <path fill="#FEE500" d="M24,4C12.402,4,3,11.611,3,21c0,5.99,3.836,11.245,9.618,14.273L12,38l5.233-3.237C19.542,36.902,21.719,37,24,37c11.598,0,21-7.611,21-17S35.598,4,24,4z"/>
  <path fill="#3C1E1E" d="M16,18.5c-1.105,0-2-0.895-2-2s0.895-2,2-2s2,0.895,2,2S17.105,18.5,16,18.5z"/>
  <path fill="#3C1E1E" d="M24,18.5c-1.105,0-2-0.895-2-2s0.895-2,2-2s2,0.895,2,2S25.105,18.5,24,18.5z"/>
  <path fill="#3C1E1E" d="M32,18.5c-1.105,0-2-0.895-2-2s0.895-2,2-2s2,0.895,2,2S33.105,18.5,32,18.5z"/>
</svg> 